<svg version="1.1" xmlns="http://www.w3.org/2000/svg" xmlns:xlink="http://www.w3.org/1999/xlink" width="417.596" height="105.96" viewBox="21.22,43.22,417.596,105.96"><g fill="#000000" fill-rule="nonzero" stroke="none" stroke-width="1" stroke-linecap="butt" stroke-linejoin="miter" stroke-miterlimit="10" stroke-dasharray="" stroke-dashoffset="0" font-family="none" font-weight="none" font-size="none" text-anchor="none" style="mix-blend-mode: normal"><path d="M59.4,149.18c-7.6,0 -14.28333,-1.62667 -20.05,-4.88c-5.77333,-3.25333 -10.24,-7.86667 -13.4,-13.84c-3.15333,-5.96667 -4.73,-12.84667 -4.73,-20.64v-27.24c0,-7.79333 1.60333,-14.67333 4.81,-20.64c3.20667,-5.97333 7.74333,-10.58667 13.61,-13.84c5.87333,-3.25333 12.65667,-4.88 20.35,-4.88h15.69c7.4,0 13.91333,1.57667 19.54,4.73c5.62,3.16 9.98333,7.57667 13.09,13.25c3.11333,5.67333 4.67,12.26 4.67,19.76h-20.13c0,-5.92 -1.58,-10.68333 -4.74,-14.29c-3.15333,-3.6 -7.29667,-5.4 -12.43,-5.4h-15.69c-5.52667,0 -9.96667,2.04667 -13.32,6.14c-3.35333,4.1 -5.03,9.45333 -5.03,16.06v25.46c0,6.60667 1.62667,11.96 4.88,16.06c3.26,4.09333 7.55333,6.14 12.88,6.14h15.98c5.23333,0 9.50333,-2.02333 12.81,-6.07c3.3,-4.04667 4.95,-9.37333 4.95,-15.98h20.13c0,7.98667 -1.57667,15.01667 -4.73,21.09c-3.16,6.06667 -7.6,10.75333 -13.32,14.06c-5.72667,3.3 -12.34,4.95 -19.84,4.95zM151.014,149.18c-6.22,0 -11.72,-1.20667 -16.5,-3.62c-4.78667,-2.42 -8.48667,-5.85 -11.1,-10.29c-2.62,-4.44 -3.93,-9.57 -3.93,-15.39v-17.32c0,-5.82 1.33333,-10.97333 4,-15.46c2.66667,-4.49333 6.39,-7.97333 11.17,-10.44c4.78667,-2.46667 10.29,-3.7 16.51,-3.7h13.32c6.21333,0 11.71333,1.23333 16.5,3.7c4.78667,2.46667 8.51,5.94667 11.17,10.44c2.66667,4.48667 4,9.64 4,15.46v17.32c0,5.82 -1.33333,10.95 -4,15.39c-2.66,4.44 -6.38333,7.87 -11.17,10.29c-4.78667,2.41333 -10.33667,3.62 -16.65,3.62zM164.034,131.87c3.65333,0 6.56333,-1.26 8.73,-3.78c2.17333,-2.51333 3.26,-5.79333 3.26,-9.84v-14.35c0,-4.04667 -1.08667,-7.33 -3.26,-9.85c-2.16667,-2.51333 -5.02667,-3.77 -8.58,-3.77h-12.73c-3.55333,0 -6.41333,1.25667 -8.58,3.77c-2.17333,2.52 -3.26,5.80333 -3.26,9.85v14.35c0,4.04667 1.08667,7.32667 3.26,9.84c2.16667,2.52 4.97667,3.78 8.43,3.78zM221.706,149.18c-8.78,0 -15.86,-2.66333 -21.24,-7.99c-5.38,-5.32667 -8.07,-12.33 -8.07,-21.01v-16.88c0,-6.01333 1.28333,-11.31667 3.85,-15.91c2.56667,-4.58667 6.17,-8.13667 10.81,-10.65c4.63333,-2.52 10.01,-3.78 16.13,-3.78h8.14c2.86,0 5.77,0.61667 8.73,1.85c2.96,1.23333 5.42667,2.88667 7.4,4.96v-35.37h20.13v103.6h-18.65v-9.77c-1.97333,3.26 -4.63667,5.9 -7.99,7.92c-3.35333,2.02 -6.85667,3.03 -10.51,3.03zM232.656,131.87c4.04667,0 7.42667,-1.45667 10.14,-4.37c2.71333,-2.90667 4.26667,-6.78 4.66,-11.62v-12.87c-0.69333,-3.84667 -2.19667,-6.93 -4.51,-9.25c-2.32,-2.32 -5.06,-3.48 -8.22,-3.48h-9.03c-3.94667,0 -7.12667,1.33333 -9.54,4c-2.42,2.66 -3.63,6.16 -3.63,10.5v13.92c0,3.94667 1.08667,7.12667 3.26,9.54c2.16667,2.42 4.97667,3.63 8.43,3.63zM307.548,149.18c-6.22,0 -11.72333,-1.15667 -16.51,-3.47c-4.78,-2.32 -8.50333,-5.57667 -11.17,-9.77c-2.66667,-4.19333 -4,-9.00333 -4,-14.43v-19.09c0,-5.82667 1.33333,-10.96 4,-15.4c2.66667,-4.44 6.39,-7.89333 11.17,-10.36c4.78667,-2.46667 10.29,-3.7 16.51,-3.7h11.84c9.46667,0 17.06333,2.66667 22.79,8c5.72,5.32667 8.58,12.43 8.58,21.31v15.69h-54.76v3.55c0,3.25333 1.03667,5.86667 3.11,7.84c2.07333,1.97333 4.88667,2.96 8.44,2.96h11.54c3.45333,0 6.24,-0.76333 8.36,-2.29c2.12,-1.53333 3.18,-3.53333 3.18,-6h19.84c0,4.93333 -1.33333,9.32667 -4,13.18c-2.66667,3.84667 -6.39,6.80667 -11.17,8.88c-4.78667,2.06667 -10.29,3.1 -16.51,3.1zM330.928,103.45v-1.18c0,-3.84667 -1.03667,-6.93 -3.11,-9.25c-2.07333,-2.32 -4.83667,-3.48 -8.29,-3.48h-11.98c-3.55333,0 -6.41667,1.23333 -8.59,3.7c-2.16667,2.46667 -3.25,5.72333 -3.25,9.77v0.44zM379.476,95.16l-34.64,-50.76h23.24l23.09,34.04l23.09,-34.04h23.08l-34.63,50.76l36.11,52.84h-23.23l-24.42,-36.11l-24.57,36.11h-23.24z"/></g></svg>